PathFileType  4	(X/Y/Z) C:\Users\wagnerel85475\Documents\Thesis\opencap-core\Data\3375ffbc-daeb-4a43-b4f7-ac9899cd4c71\MarkerData\PreAugmentation
DataRate	CameraRate	NumFrames	NumMarkers	Units	OrigDataRate	OrigDataStartFrame	OrigNumFrames
60.0	60.0	11	20	m	60.0	38	301
Frame#	Time	Neck			RShoulder			RElbow			RWrist			LShoulder			LElbow			LWrist			midHip			RHip			RKnee			RAnkle			LHip			LKnee			LAnkle			LBigToe			LSmallToe			LHeel			RBigToe			RSmallToe			RHeel			
		X1	Y1	Z1	X2	Y2	Z2	X3	Y3	Z3	X4	Y4	Z4	X5	Y5	Z5	X6	Y6	Z6	X7	Y7	Z7	X8	Y8	Z8	X9	Y9	Z9	X10	Y10	Z10	X11	Y11	Z11	X12	Y12	Z12	X13	Y13	Z13	X14	Y14	Z14	X15	Y15	Z15	X16	Y16	Z16	X17	Y17	Z17	X18	Y18	Z18	X19	Y19	Z19	X20	Y20	Z20	

38	0.6166667	0.2559900	0.8322400	-0.1428800	0.3095900	0.8240900	0.0358600	0.2398900	0.5050500	0.1294300	0.3753100	0.2860800	0.1749500	0.2767400	0.8620800	-0.3205300	0.3966900	0.9643800	-0.5654300	0.4921100	1.2133200	-0.4817300	0.2698700	0.3248500	-0.1420400	0.2756900	0.3237500	-0.0156600	0.7975200	0.3336400	-0.0047800	0.6960400	-0.1774000	0.0072700	0.2785500	0.3324900	-0.2688800	0.7574600	0.3217200	-0.3299900	0.6708400	-0.1878200	-0.3271800	0.8949100	-0.2243200	-0.3490600	0.8463700	-0.2197700	-0.3994800	0.5938300	-0.2399300	-0.3263200	0.8896000	-0.2291100	0.0319300	0.8432100	-0.2220700	0.0735500	0.6278400	-0.2302000	-0.0162700
39	0.6333333	0.2562000	0.8322200	-0.1426800	0.3087300	0.8243000	0.0358800	0.2517900	0.5073300	0.1326800	0.3630900	0.2796500	0.1799700	0.2872800	0.8634900	-0.3249500	0.3990800	0.9425200	-0.5740100	0.5144900	1.1727600	-0.4977200	0.2706900	0.3254300	-0.1413500	0.2858500	0.3268500	-0.0115600	0.7980100	0.3300100	-0.0048100	0.6961300	-0.1774100	0.0074200	0.2793200	0.3327600	-0.2683600	0.7577900	0.3223100	-0.3299400	0.6716200	-0.1909400	-0.3278500	0.8944700	-0.2242700	-0.3490400	0.8468800	-0.2196400	-0.3993800	0.6035400	-0.2366400	-0.3301900	0.8893800	-0.2289900	0.0318000	0.8430900	-0.2220800	0.0733900	0.6277100	-0.2262200	-0.0157200
40	0.6500000	0.2564100	0.8288300	-0.1429200	0.3198300	0.8250700	0.0311300	0.2640900	0.5091300	0.1364500	0.3729700	0.2843800	0.1824500	0.2769600	0.8619200	-0.3293800	0.3907900	0.9078800	-0.5865600	0.5272900	1.1501900	-0.5089500	0.2699300	0.3249200	-0.1420000	0.2845100	0.3298100	-0.0114600	0.7971100	0.3260200	-0.0056000	0.6867600	-0.1804800	0.0041400	0.2784300	0.3324100	-0.2689300	0.7573200	0.3216000	-0.3300200	0.6702500	-0.1915400	-0.3264800	0.8949200	-0.2242900	-0.3490400	0.8463600	-0.2197300	-0.3994500	0.6034800	-0.2367100	-0.3301400	0.8894300	-0.2290800	0.0318600	0.8430600	-0.2219600	0.0734300	0.6275400	-0.2302400	-0.0162600
41	0.6666667	0.2669400	0.8253900	-0.1470600	0.3186800	0.8251000	0.0310900	0.2755600	0.5112400	0.1395300	0.3913800	0.2789000	0.1806100	0.2985600	0.8603900	-0.3290000	0.3924900	0.8814800	-0.5866400	0.5287500	1.1090600	-0.5094800	0.2710900	0.3254900	-0.1413000	0.2962700	0.3289000	-0.0161300	0.7789900	0.3288700	-0.0122100	0.6877000	-0.1809700	0.0030600	0.2794800	0.3327100	-0.2683300	0.7578400	0.3223400	-0.3299400	0.6701000	-0.1912800	-0.3264800	0.8944700	-0.2242500	-0.3490600	0.8469800	-0.2196200	-0.3993900	0.6035900	-0.2367900	-0.3302100	0.8896100	-0.2259400	0.0311700	0.8433000	-0.2189300	0.0726900	0.6278200	-0.2305000	-0.0162900
42	0.6833333	0.2671200	0.8253100	-0.1474400	0.3200000	0.8248200	0.0309600	0.2762000	0.5156100	0.1403100	0.4053600	0.2707100	0.1902700	0.2995800	0.8560400	-0.3290700	0.3928300	0.8561500	-0.5864200	0.5398500	1.0917000	-0.5125700	0.2689600	0.3290100	-0.1415500	0.2845300	0.3298600	-0.0113900	0.7784400	0.3252800	-0.0121800	0.6871500	-0.1809700	0.0028700	0.2784900	0.3325200	-0.2689600	0.7573500	0.3216100	-0.3299800	0.6710400	-0.1950300	-0.3271300	0.8949400	-0.2242900	-0.3490200	0.8463600	-0.2196000	-0.3993800	0.6034000	-0.2367900	-0.3302200	0.8897000	-0.2191300	0.0311600	0.8345800	-0.2219000	0.0697300	0.6272000	-0.2304400	-0.0162300
43	0.7000000	0.2781700	0.8262200	-0.1516600	0.3289300	0.8214800	0.0260700	0.2761500	0.5158900	0.1401300	0.4368700	0.2783200	0.1922200	0.3102400	0.8570400	-0.3331700	0.3857700	0.8296900	-0.5908200	0.5519500	1.0485500	-0.5164500	0.2700600	0.3295300	-0.1409000	0.2864200	0.3264900	-0.0115800	0.7886000	0.3202300	-0.0091300	0.6873300	-0.1811100	0.0030700	0.2794500	0.3328500	-0.2683700	0.7579800	0.3223300	-0.3298800	0.6708500	-0.1948200	-0.3271600	0.8944400	-0.2243000	-0.3490700	0.8469400	-0.2196500	-0.3993900	0.6035000	-0.2368700	-0.3302600	0.8892200	-0.2152800	0.0317400	0.8342700	-0.2154800	0.0696000	0.6275000	-0.2306600	-0.0162500
44	0.7166667	0.2784400	0.8260800	-0.1521600	0.3304600	0.8212800	0.0260200	0.2768800	0.5157500	0.1405900	0.4495700	0.2918900	0.1961900	0.3102700	0.8487800	-0.3331900	0.3852200	0.8030100	-0.5908700	0.5928000	1.0343500	-0.5221300	0.2701800	0.3247800	-0.1421300	0.2951400	0.3235800	-0.0162500	0.7973500	0.3258900	-0.0064600	0.6865400	-0.1844600	0.0035600	0.2786300	0.3324900	-0.2690500	0.7575200	0.3216300	-0.3299200	0.6701600	-0.1916700	-0.3264900	0.8949300	-0.2243100	-0.3490300	0.8463900	-0.2196900	-0.3993700	0.5938400	-0.2404000	-0.3264100	0.8891300	-0.2153400	0.0317300	0.8341700	-0.2153800	0.0696500	0.6185900	-0.2337100	-0.0119900
45	0.7333333	0.3002600	0.8236200	-0.1610200	0.3296400	0.8181500	0.0262800	0.2883700	0.5178300	0.1436800	0.4707100	0.2897400	0.2020200	0.3103500	0.8412300	-0.3331000	0.3877700	0.7793400	-0.5900500	0.6341500	0.9877000	-0.5283300	0.2817900	0.3275300	-0.1457400	0.3047800	0.3264300	-0.0203900	0.7887300	0.3276100	-0.0083100	0.6865700	-0.1841500	0.0050100	0.2800000	0.3327800	-0.2684100	0.7580900	0.3223800	-0.3298200	0.6706800	-0.1949100	-0.3271800	0.8945100	-0.2242300	-0.3490500	0.8470500	-0.2195900	-0.3993500	0.5938700	-0.2406200	-0.3264900	0.8890600	-0.2152800	0.0317000	0.8339000	-0.2185500	0.0702400	0.6188800	-0.2339100	-0.0120000
46	0.7500000	0.3009700	0.8199500	-0.1612400	0.3422600	0.8189300	0.0296900	0.3017200	0.5111300	0.1468000	0.4723400	0.2894000	0.2017500	0.3109300	0.8327900	-0.3330300	0.3874400	0.7527900	-0.5897100	0.6384100	0.9477200	-0.5275200	0.2691800	0.3209700	-0.1415200	0.2850800	0.3214800	-0.0114300	0.7969500	0.3330800	-0.0056900	0.6863700	-0.1878600	0.0041900	0.2786200	0.3323000	-0.2689900	0.7575500	0.3217000	-0.3298300	0.6707800	-0.1951500	-0.3272100	0.8950700	-0.2242000	-0.3489900	0.8465600	-0.2196700	-0.3993500	0.5937000	-0.2406400	-0.3265000	0.8892500	-0.2153800	0.0317900	0.8339200	-0.2184500	0.0703500	0.6185400	-0.2337900	-0.0119600
47	0.7666667	0.3120500	0.8162600	-0.1654900	0.3411700	0.8145700	0.0295800	0.3128300	0.5175100	0.1501400	0.4827500	0.2964400	0.2055900	0.3331400	0.8277000	-0.3325000	0.3977100	0.7314600	-0.5848700	0.6568200	0.9211500	-0.5269900	0.2692300	0.3257300	-0.1403000	0.2811200	0.3264600	-0.0100900	0.7885600	0.3348600	-0.0083500	0.6863700	-0.1808100	0.0043100	0.2794700	0.3289100	-0.2678700	0.7581400	0.3225000	-0.3297600	0.6698900	-0.1914700	-0.3265400	0.8945800	-0.2241700	-0.3490700	0.8471700	-0.2195700	-0.3993800	0.5938100	-0.2406400	-0.3264800	0.8890100	-0.2152800	0.0316900	0.8340100	-0.2156500	0.0696200	0.6187500	-0.2338900	-0.0120800
48	0.7833333	0.3233900	0.8044100	-0.1706900	0.3429800	0.8109900	0.0296800	0.3373100	0.5173500	0.1573500	0.5069100	0.3010900	0.2106200	0.3338900	0.8105400	-0.3330100	0.3886000	0.6980000	-0.5894400	0.6608200	0.8641100	-0.5420400	0.2592500	0.3221800	-0.1374400	0.2769800	0.3236800	-0.0071400	0.7971700	0.3369400	-0.0053400	0.6860600	-0.1807300	0.0040900	0.2673000	0.3297800	-0.2646000	0.7575700	0.3216600	-0.3298300	0.6718300	-0.1915600	-0.3279100	0.8950800	-0.2242300	-0.3489900	0.8464200	-0.2197100	-0.3993100	0.5937700	-0.2404800	-0.3264700	0.8801200	-0.2148900	0.0292300	0.8337200	-0.2154400	0.0696100	0.6184000	-0.2337300	-0.0120200
